<mxfile host="65bd71144e" pages="4">
    <diagram id="35Q427mRYv1esqytPP7A" name="Базовая архитектура">
        <mxGraphModel dx="1796" dy="828" grid="1" gridSize="10" guides="1" tooltips="1" connect="1" arrows="1" fold="1" page="1" pageScale="1" pageWidth="850" pageHeight="1100" background="#ffffff" math="0" shadow="0">
            <root>
                <mxCell id="0"/>
                <mxCell id="1" parent="0"/>
                <mxCell id="NEUxk9mMI2yf1dqqhtou-1" value="Мобильное&lt;br&gt;приложение&lt;br&gt;клиента" style="rounded=0;whiteSpace=wrap;html=1;" parent="1" vertex="1">
                    <mxGeometry x="360" y="140" width="120" height="60" as="geometry"/>
                </mxCell>
                <mxCell id="NEUxk9mMI2yf1dqqhtou-2" style="edgeStyle=none;html=1;startArrow=classic;startFill=1;" parent="1" source="NEUxk9mMI2yf1dqqhtou-5" target="NEUxk9mMI2yf1dqqhtou-1" edge="1">
                    <mxGeometry relative="1" as="geometry"/>
                </mxCell>
                <mxCell id="NEUxk9mMI2yf1dqqhtou-3" style="edgeStyle=none;html=1;entryX=0;entryY=0.5;entryDx=0;entryDy=0;startArrow=classic;startFill=1;" parent="1" source="NEUxk9mMI2yf1dqqhtou-5" target="NEUxk9mMI2yf1dqqhtou-11" edge="1">
                    <mxGeometry relative="1" as="geometry"/>
                </mxCell>
                <mxCell id="NEUxk9mMI2yf1dqqhtou-4" value="" style="edgeStyle=none;html=1;startArrow=classic;startFill=1;" parent="1" source="NEUxk9mMI2yf1dqqhtou-5" target="NEUxk9mMI2yf1dqqhtou-9" edge="1">
                    <mxGeometry relative="1" as="geometry"/>
                </mxCell>
                <mxCell id="NEUxk9mMI2yf1dqqhtou-5" value="Система&lt;br&gt;управления парком&lt;br&gt;автомобилей" style="rounded=0;whiteSpace=wrap;html=1;" parent="1" vertex="1">
                    <mxGeometry x="360" y="40" width="120" height="60" as="geometry"/>
                </mxCell>
                <mxCell id="NEUxk9mMI2yf1dqqhtou-6" style="edgeStyle=none;html=1;entryX=0.5;entryY=1;entryDx=0;entryDy=0;startArrow=classic;startFill=1;" parent="1" source="NEUxk9mMI2yf1dqqhtou-7" target="NEUxk9mMI2yf1dqqhtou-1" edge="1">
                    <mxGeometry relative="1" as="geometry"/>
                </mxCell>
                <mxCell id="NEUxk9mMI2yf1dqqhtou-7" value="Клиент" style="shape=umlActor;verticalLabelPosition=bottom;verticalAlign=top;html=1;outlineConnect=0;" parent="1" vertex="1">
                    <mxGeometry x="405" y="240" width="30" height="60" as="geometry"/>
                </mxCell>
                <mxCell id="NEUxk9mMI2yf1dqqhtou-8" style="edgeStyle=none;html=1;exitX=0.5;exitY=1;exitDx=0;exitDy=0;entryX=0;entryY=0.5;entryDx=0;entryDy=0;startArrow=classic;startFill=1;" parent="1" source="NEUxk9mMI2yf1dqqhtou-9" target="NEUxk9mMI2yf1dqqhtou-1" edge="1">
                    <mxGeometry relative="1" as="geometry">
                        <Array as="points">
                            <mxPoint x="240" y="170"/>
                        </Array>
                    </mxGeometry>
                </mxCell>
                <mxCell id="NEUxk9mMI2yf1dqqhtou-9" value="Система&lt;br&gt;оплаты услуг" style="rounded=0;whiteSpace=wrap;html=1;" parent="1" vertex="1">
                    <mxGeometry x="180" y="40" width="120" height="60" as="geometry"/>
                </mxCell>
                <mxCell id="NEUxk9mMI2yf1dqqhtou-10" style="edgeStyle=none;html=1;exitX=0.5;exitY=1;exitDx=0;exitDy=0;entryX=1;entryY=0.5;entryDx=0;entryDy=0;startArrow=classic;startFill=1;" parent="1" source="NEUxk9mMI2yf1dqqhtou-11" target="NEUxk9mMI2yf1dqqhtou-1" edge="1">
                    <mxGeometry relative="1" as="geometry">
                        <Array as="points">
                            <mxPoint x="600" y="170"/>
                        </Array>
                    </mxGeometry>
                </mxCell>
                <mxCell id="NEUxk9mMI2yf1dqqhtou-11" value="Автомобиль" style="rounded=0;whiteSpace=wrap;html=1;" parent="1" vertex="1">
                    <mxGeometry x="540" y="40" width="120" height="60" as="geometry"/>
                </mxCell>
            </root>
        </mxGraphModel>
    </diagram>
    <diagram id="KBCG77oCqKZc_9hqxYs-" name="Переработанная архитектура">
        <mxGraphModel dx="1796" dy="828" grid="1" gridSize="10" guides="1" tooltips="1" connect="1" arrows="1" fold="1" page="1" pageScale="1" pageWidth="850" pageHeight="1100" background="#ffffff" math="0" shadow="0">
            <root>
                <mxCell id="0"/>
                <mxCell id="1" parent="0"/>
                <mxCell id="W82ajbVbyvE1VLJSEhiv-86" style="edgeStyle=none;html=1;exitX=0.5;exitY=0;exitDx=0;exitDy=0;entryX=0.5;entryY=1;entryDx=0;entryDy=0;strokeColor=#000000;fontColor=#006600;startArrow=classic;startFill=1;" parent="1" source="W82ajbVbyvE1VLJSEhiv-87" target="W82ajbVbyvE1VLJSEhiv-98" edge="1">
                    <mxGeometry relative="1" as="geometry"/>
                </mxCell>
                <mxCell id="W82ajbVbyvE1VLJSEhiv-87" value="Мобильное&lt;br&gt;приложение&lt;br&gt;клиента" style="rounded=0;whiteSpace=wrap;html=1;strokeColor=#000000;" parent="1" vertex="1">
                    <mxGeometry x="220" y="300" width="120" height="60" as="geometry"/>
                </mxCell>
                <mxCell id="W82ajbVbyvE1VLJSEhiv-88" style="edgeStyle=none;html=1;entryX=0.5;entryY=1;entryDx=0;entryDy=0;startArrow=classic;startFill=1;strokeColor=#000000;" parent="1" source="W82ajbVbyvE1VLJSEhiv-89" target="W82ajbVbyvE1VLJSEhiv-87" edge="1">
                    <mxGeometry relative="1" as="geometry"/>
                </mxCell>
                <mxCell id="W82ajbVbyvE1VLJSEhiv-89" value="Клиент" style="shape=umlActor;verticalLabelPosition=bottom;verticalAlign=top;html=1;outlineConnect=0;strokeColor=#000000;" parent="1" vertex="1">
                    <mxGeometry x="265" y="390" width="30" height="60" as="geometry"/>
                </mxCell>
                <mxCell id="W82ajbVbyvE1VLJSEhiv-90" style="edgeStyle=none;html=1;exitX=0.5;exitY=1;exitDx=0;exitDy=0;entryX=0;entryY=0.5;entryDx=0;entryDy=0;startArrow=classic;startFill=1;strokeColor=#000000;" parent="1" source="W82ajbVbyvE1VLJSEhiv-92" target="W82ajbVbyvE1VLJSEhiv-87" edge="1">
                    <mxGeometry relative="1" as="geometry">
                        <Array as="points">
                            <mxPoint x="60" y="330"/>
                        </Array>
                    </mxGeometry>
                </mxCell>
                <mxCell id="W82ajbVbyvE1VLJSEhiv-91" style="edgeStyle=none;html=1;entryX=0;entryY=0.5;entryDx=0;entryDy=0;strokeColor=#000000;fontColor=#006600;startArrow=classic;startFill=1;" parent="1" source="W82ajbVbyvE1VLJSEhiv-92" target="W82ajbVbyvE1VLJSEhiv-105" edge="1">
                    <mxGeometry relative="1" as="geometry">
                        <Array as="points">
                            <mxPoint x="60" y="50"/>
                        </Array>
                    </mxGeometry>
                </mxCell>
                <mxCell id="W82ajbVbyvE1VLJSEhiv-92" value="Система&lt;br&gt;оплаты услуг" style="rounded=0;whiteSpace=wrap;html=1;strokeColor=#000000;" parent="1" vertex="1">
                    <mxGeometry y="120" width="120" height="60" as="geometry"/>
                </mxCell>
                <mxCell id="W82ajbVbyvE1VLJSEhiv-93" style="edgeStyle=none;html=1;exitX=0.5;exitY=1;exitDx=0;exitDy=0;entryX=1;entryY=0.5;entryDx=0;entryDy=0;startArrow=classic;startFill=1;strokeColor=#000000;" parent="1" source="W82ajbVbyvE1VLJSEhiv-95" target="W82ajbVbyvE1VLJSEhiv-87" edge="1">
                    <mxGeometry relative="1" as="geometry">
                        <Array as="points">
                            <mxPoint x="440" y="250"/>
                            <mxPoint x="440" y="330"/>
                        </Array>
                    </mxGeometry>
                </mxCell>
                <mxCell id="meh5J39TtTSk0XKhaKXw-1" style="edgeStyle=none;html=1;exitX=0.5;exitY=0;exitDx=0;exitDy=0;entryX=0.5;entryY=1;entryDx=0;entryDy=0;startArrow=classic;startFill=1;" parent="1" source="W82ajbVbyvE1VLJSEhiv-95" target="W82ajbVbyvE1VLJSEhiv-107" edge="1">
                    <mxGeometry relative="1" as="geometry"/>
                </mxCell>
                <mxCell id="W82ajbVbyvE1VLJSEhiv-95" value="Автомобиль" style="rounded=0;whiteSpace=wrap;html=1;strokeColor=#000000;" parent="1" vertex="1">
                    <mxGeometry x="380" y="110" width="120" height="60" as="geometry"/>
                </mxCell>
                <mxCell id="W82ajbVbyvE1VLJSEhiv-97" style="edgeStyle=none;html=1;exitX=0.5;exitY=0;exitDx=0;exitDy=0;entryX=0.5;entryY=1;entryDx=0;entryDy=0;strokeColor=#000000;fontColor=#006600;startArrow=classic;startFill=1;" parent="1" source="W82ajbVbyvE1VLJSEhiv-98" target="W82ajbVbyvE1VLJSEhiv-112" edge="1">
                    <mxGeometry relative="1" as="geometry"/>
                </mxCell>
                <mxCell id="W82ajbVbyvE1VLJSEhiv-98" value="&lt;font color=&quot;#000000&quot;&gt;1.Связь с мобильным клиентом&lt;/font&gt;" style="rounded=0;whiteSpace=wrap;html=1;strokeColor=#000000;fontColor=#990000;" parent="1" vertex="1">
                    <mxGeometry x="220" y="200" width="120" height="60" as="geometry"/>
                </mxCell>
                <mxCell id="W82ajbVbyvE1VLJSEhiv-105" value="&lt;font color=&quot;#000000&quot;&gt;5.Работа с системой оплаты услуг и счетами&lt;/font&gt;" style="rounded=0;whiteSpace=wrap;html=1;strokeColor=#000000;fontColor=#990000;" parent="1" vertex="1">
                    <mxGeometry x="80" y="20" width="120" height="60" as="geometry"/>
                </mxCell>
                <mxCell id="meh5J39TtTSk0XKhaKXw-2" style="edgeStyle=none;html=1;exitX=0;exitY=0.5;exitDx=0;exitDy=0;entryX=1;entryY=0.5;entryDx=0;entryDy=0;startArrow=classic;startFill=1;" parent="1" source="W82ajbVbyvE1VLJSEhiv-107" target="W82ajbVbyvE1VLJSEhiv-111" edge="1">
                    <mxGeometry relative="1" as="geometry"/>
                </mxCell>
                <mxCell id="W82ajbVbyvE1VLJSEhiv-107" value="4.Связь с автомобилем" style="rounded=0;whiteSpace=wrap;html=1;strokeColor=#000000;" parent="1" vertex="1">
                    <mxGeometry x="380" y="20" width="120" height="60" as="geometry"/>
                </mxCell>
                <mxCell id="W82ajbVbyvE1VLJSEhiv-109" style="edgeStyle=none;html=1;strokeColor=#000000;fontColor=#990000;startArrow=classic;startFill=1;" parent="1" source="W82ajbVbyvE1VLJSEhiv-111" target="W82ajbVbyvE1VLJSEhiv-112" edge="1">
                    <mxGeometry relative="1" as="geometry"/>
                </mxCell>
                <mxCell id="W82ajbVbyvE1VLJSEhiv-111" value="3.Управление поездкой" style="rounded=0;whiteSpace=wrap;html=1;strokeColor=#000000;" parent="1" vertex="1">
                    <mxGeometry x="220" y="20" width="120" height="60" as="geometry"/>
                </mxCell>
                <mxCell id="AQ_LVVeCLXQJol3v7Dfv-1" style="edgeStyle=none;html=1;exitX=0;exitY=0.5;exitDx=0;exitDy=0;entryX=0.5;entryY=1;entryDx=0;entryDy=0;startArrow=classic;startFill=1;" parent="1" source="W82ajbVbyvE1VLJSEhiv-112" target="W82ajbVbyvE1VLJSEhiv-105" edge="1">
                    <mxGeometry relative="1" as="geometry">
                        <Array as="points">
                            <mxPoint x="140" y="140"/>
                        </Array>
                    </mxGeometry>
                </mxCell>
                <mxCell id="W82ajbVbyvE1VLJSEhiv-112" value="&lt;font color=&quot;#000000&quot;&gt;2.Профиль клиента&lt;/font&gt;" style="rounded=0;whiteSpace=wrap;html=1;strokeColor=#000000;fontColor=#990000;" parent="1" vertex="1">
                    <mxGeometry x="220" y="110" width="120" height="60" as="geometry"/>
                </mxCell>
            </root>
        </mxGraphModel>
    </diagram>
    <diagram name="Политика архитектуры чб" id="AU5LwGZ1rDiYcGF3SerP">
        <mxGraphModel dx="1796" dy="828" grid="1" gridSize="10" guides="1" tooltips="1" connect="1" arrows="1" fold="1" page="1" pageScale="1" pageWidth="850" pageHeight="1100" background="#ffffff" math="0" shadow="0">
            <root>
                <mxCell id="AUYY_thtZLO__8hlKG5w-0"/>
                <mxCell id="AUYY_thtZLO__8hlKG5w-1" parent="AUYY_thtZLO__8hlKG5w-0"/>
                <mxCell id="AUYY_thtZLO__8hlKG5w-2" style="edgeStyle=none;html=1;exitX=0.5;exitY=0;exitDx=0;exitDy=0;entryX=0.5;entryY=1;entryDx=0;entryDy=0;strokeColor=#000000;fontColor=#006600;startArrow=classic;startFill=1;" parent="AUYY_thtZLO__8hlKG5w-1" source="AUYY_thtZLO__8hlKG5w-3" target="AUYY_thtZLO__8hlKG5w-14" edge="1">
                    <mxGeometry relative="1" as="geometry"/>
                </mxCell>
                <mxCell id="AUYY_thtZLO__8hlKG5w-3" value="Мобильное&lt;br&gt;приложение&lt;br&gt;клиента" style="rounded=0;whiteSpace=wrap;html=1;strokeColor=#000000;" parent="AUYY_thtZLO__8hlKG5w-1" vertex="1">
                    <mxGeometry x="220" y="300" width="120" height="60" as="geometry"/>
                </mxCell>
                <mxCell id="AUYY_thtZLO__8hlKG5w-4" style="edgeStyle=none;html=1;entryX=0.5;entryY=1;entryDx=0;entryDy=0;startArrow=classic;startFill=1;strokeColor=#000000;" parent="AUYY_thtZLO__8hlKG5w-1" source="AUYY_thtZLO__8hlKG5w-5" target="AUYY_thtZLO__8hlKG5w-3" edge="1">
                    <mxGeometry relative="1" as="geometry"/>
                </mxCell>
                <mxCell id="AUYY_thtZLO__8hlKG5w-5" value="Клиент" style="shape=umlActor;verticalLabelPosition=bottom;verticalAlign=top;html=1;outlineConnect=0;strokeColor=#000000;" parent="AUYY_thtZLO__8hlKG5w-1" vertex="1">
                    <mxGeometry x="265" y="390" width="30" height="60" as="geometry"/>
                </mxCell>
                <mxCell id="AUYY_thtZLO__8hlKG5w-6" style="edgeStyle=none;html=1;exitX=0.5;exitY=1;exitDx=0;exitDy=0;entryX=0;entryY=0.5;entryDx=0;entryDy=0;startArrow=classic;startFill=1;strokeColor=#000000;" parent="AUYY_thtZLO__8hlKG5w-1" source="AUYY_thtZLO__8hlKG5w-8" target="AUYY_thtZLO__8hlKG5w-3" edge="1">
                    <mxGeometry relative="1" as="geometry">
                        <Array as="points">
                            <mxPoint x="60" y="330"/>
                        </Array>
                    </mxGeometry>
                </mxCell>
                <mxCell id="AUYY_thtZLO__8hlKG5w-7" style="edgeStyle=none;html=1;entryX=0;entryY=0.5;entryDx=0;entryDy=0;strokeColor=#000000;fontColor=#006600;startArrow=classic;startFill=1;" parent="AUYY_thtZLO__8hlKG5w-1" source="AUYY_thtZLO__8hlKG5w-8" target="AUYY_thtZLO__8hlKG5w-17" edge="1">
                    <mxGeometry relative="1" as="geometry">
                        <Array as="points">
                            <mxPoint x="60" y="50"/>
                        </Array>
                    </mxGeometry>
                </mxCell>
                <mxCell id="AUYY_thtZLO__8hlKG5w-8" value="Система&lt;br&gt;оплаты услуг" style="rounded=0;whiteSpace=wrap;html=1;strokeColor=#000000;" parent="AUYY_thtZLO__8hlKG5w-1" vertex="1">
                    <mxGeometry y="120" width="120" height="60" as="geometry"/>
                </mxCell>
                <mxCell id="AUYY_thtZLO__8hlKG5w-9" style="edgeStyle=none;html=1;exitX=0.5;exitY=1;exitDx=0;exitDy=0;entryX=1;entryY=0.5;entryDx=0;entryDy=0;startArrow=classic;startFill=1;strokeColor=#000000;" parent="AUYY_thtZLO__8hlKG5w-1" source="AUYY_thtZLO__8hlKG5w-11" target="AUYY_thtZLO__8hlKG5w-3" edge="1">
                    <mxGeometry relative="1" as="geometry">
                        <Array as="points">
                            <mxPoint x="770" y="320"/>
                            <mxPoint x="770" y="330"/>
                        </Array>
                    </mxGeometry>
                </mxCell>
                <mxCell id="AUYY_thtZLO__8hlKG5w-10" style="edgeStyle=none;html=1;exitX=0.5;exitY=0;exitDx=0;exitDy=0;entryX=1;entryY=0.5;entryDx=0;entryDy=0;strokeColor=#000000;fontSize=12;fontColor=#000000;startArrow=none;startFill=0;" parent="AUYY_thtZLO__8hlKG5w-1" source="AUYY_thtZLO__8hlKG5w-11" target="AUYY_thtZLO__8hlKG5w-19" edge="1">
                    <mxGeometry relative="1" as="geometry">
                        <Array as="points">
                            <mxPoint x="770" y="50"/>
                        </Array>
                    </mxGeometry>
                </mxCell>
                <mxCell id="AUYY_thtZLO__8hlKG5w-11" value="Автомобиль" style="rounded=0;whiteSpace=wrap;html=1;strokeColor=#000000;" parent="AUYY_thtZLO__8hlKG5w-1" vertex="1">
                    <mxGeometry x="710" y="120" width="120" height="60" as="geometry"/>
                </mxCell>
                <mxCell id="AUYY_thtZLO__8hlKG5w-12" style="edgeStyle=none;html=1;exitX=0;exitY=0.5;exitDx=0;exitDy=0;entryX=0.5;entryY=1;entryDx=0;entryDy=0;strokeColor=#000000;fontColor=#006600;startArrow=classic;startFill=1;" parent="AUYY_thtZLO__8hlKG5w-1" source="AUYY_thtZLO__8hlKG5w-24" target="AUYY_thtZLO__8hlKG5w-17" edge="1">
                    <mxGeometry relative="1" as="geometry">
                        <Array as="points">
                            <mxPoint x="140" y="140"/>
                        </Array>
                    </mxGeometry>
                </mxCell>
                <mxCell id="AUYY_thtZLO__8hlKG5w-13" style="edgeStyle=none;html=1;exitX=0.5;exitY=0;exitDx=0;exitDy=0;entryX=0.5;entryY=1;entryDx=0;entryDy=0;strokeColor=#000000;fontColor=#006600;startArrow=classic;startFill=1;" parent="AUYY_thtZLO__8hlKG5w-1" source="AUYY_thtZLO__8hlKG5w-14" target="AUYY_thtZLO__8hlKG5w-24" edge="1">
                    <mxGeometry relative="1" as="geometry"/>
                </mxCell>
                <mxCell id="AUYY_thtZLO__8hlKG5w-14" value="&lt;font color=&quot;#000000&quot;&gt;1.Связь с мобильным клиентом&lt;/font&gt;" style="rounded=0;whiteSpace=wrap;html=1;strokeColor=#000000;fontColor=#990000;" parent="AUYY_thtZLO__8hlKG5w-1" vertex="1">
                    <mxGeometry x="220" y="200" width="120" height="60" as="geometry"/>
                </mxCell>
                <mxCell id="AUYY_thtZLO__8hlKG5w-15" style="edgeStyle=none;html=1;exitX=1;exitY=0.5;exitDx=0;exitDy=0;entryX=0;entryY=0.5;entryDx=0;entryDy=0;strokeColor=#000000;fontSize=12;fontColor=#000000;startArrow=none;startFill=0;" parent="AUYY_thtZLO__8hlKG5w-1" source="AUYY_thtZLO__8hlKG5w-16" target="AUYY_thtZLO__8hlKG5w-28" edge="1">
                    <mxGeometry relative="1" as="geometry">
                        <Array as="points">
                            <mxPoint x="540" y="210"/>
                            <mxPoint x="540" y="150"/>
                        </Array>
                    </mxGeometry>
                </mxCell>
                <mxCell id="AUYY_thtZLO__8hlKG5w-16" value="7.Авторизация клиента" style="rounded=0;whiteSpace=wrap;html=1;strokeColor=#000000;" parent="AUYY_thtZLO__8hlKG5w-1" vertex="1">
                    <mxGeometry x="390" y="180" width="120" height="60" as="geometry"/>
                </mxCell>
                <mxCell id="AUYY_thtZLO__8hlKG5w-17" value="&lt;font color=&quot;#000000&quot;&gt;5.Работа с системой оплаты услуг и счетами&lt;/font&gt;" style="rounded=0;whiteSpace=wrap;html=1;strokeColor=#000000;fontColor=#990000;" parent="AUYY_thtZLO__8hlKG5w-1" vertex="1">
                    <mxGeometry x="80" y="20" width="120" height="60" as="geometry"/>
                </mxCell>
                <mxCell id="AUYY_thtZLO__8hlKG5w-18" style="edgeStyle=none;html=1;exitX=0;exitY=0.5;exitDx=0;exitDy=0;entryX=1;entryY=0.5;entryDx=0;entryDy=0;strokeColor=#000000;fontSize=12;fontColor=#000000;startArrow=none;startFill=0;" parent="AUYY_thtZLO__8hlKG5w-1" source="AUYY_thtZLO__8hlKG5w-19" target="AUYY_thtZLO__8hlKG5w-31" edge="1">
                    <mxGeometry relative="1" as="geometry"/>
                </mxCell>
                <mxCell id="AUYY_thtZLO__8hlKG5w-19" value="8.Приём данных от автомобиля" style="rounded=0;whiteSpace=wrap;html=1;strokeColor=#000000;" parent="AUYY_thtZLO__8hlKG5w-1" vertex="1">
                    <mxGeometry x="560" y="20" width="120" height="60" as="geometry"/>
                </mxCell>
                <mxCell id="AUYY_thtZLO__8hlKG5w-21" style="edgeStyle=none;html=1;strokeColor=#000000;fontColor=#990000;startArrow=classic;startFill=1;" parent="AUYY_thtZLO__8hlKG5w-1" source="AUYY_thtZLO__8hlKG5w-23" target="AUYY_thtZLO__8hlKG5w-24" edge="1">
                    <mxGeometry relative="1" as="geometry"/>
                </mxCell>
                <mxCell id="AUYY_thtZLO__8hlKG5w-22" style="edgeStyle=none;html=1;exitX=1;exitY=0.75;exitDx=0;exitDy=0;entryX=0;entryY=0.5;entryDx=0;entryDy=0;strokeColor=#000000;fontSize=12;fontColor=#000000;startArrow=none;startFill=0;" parent="AUYY_thtZLO__8hlKG5w-1" source="AUYY_thtZLO__8hlKG5w-23" target="AUYY_thtZLO__8hlKG5w-26" edge="1">
                    <mxGeometry relative="1" as="geometry">
                        <Array as="points">
                            <mxPoint x="370" y="65"/>
                            <mxPoint x="370" y="130"/>
                        </Array>
                    </mxGeometry>
                </mxCell>
                <mxCell id="AUYY_thtZLO__8hlKG5w-23" value="3.Управление поездкой" style="rounded=0;whiteSpace=wrap;html=1;strokeColor=#000000;" parent="AUYY_thtZLO__8hlKG5w-1" vertex="1">
                    <mxGeometry x="220" y="20" width="120" height="60" as="geometry"/>
                </mxCell>
                <mxCell id="AUYY_thtZLO__8hlKG5w-24" value="&lt;font color=&quot;#000000&quot;&gt;2.Профиль клиента&lt;/font&gt;" style="rounded=0;whiteSpace=wrap;html=1;strokeColor=#000000;fontColor=#990000;" parent="AUYY_thtZLO__8hlKG5w-1" vertex="1">
                    <mxGeometry x="220" y="110" width="120" height="60" as="geometry"/>
                </mxCell>
                <mxCell id="AUYY_thtZLO__8hlKG5w-25" style="edgeStyle=none;html=1;exitX=0.5;exitY=1;exitDx=0;exitDy=0;entryX=0.5;entryY=0;entryDx=0;entryDy=0;strokeColor=#000000;fontSize=12;fontColor=#000000;startArrow=none;startFill=0;" parent="AUYY_thtZLO__8hlKG5w-1" source="AUYY_thtZLO__8hlKG5w-26" target="AUYY_thtZLO__8hlKG5w-16" edge="1">
                    <mxGeometry relative="1" as="geometry"/>
                </mxCell>
                <mxCell id="AUYY_thtZLO__8hlKG5w-26" value="6.Верификация команд и услуг" style="rounded=0;whiteSpace=wrap;html=1;strokeColor=#000000;" parent="AUYY_thtZLO__8hlKG5w-1" vertex="1">
                    <mxGeometry x="390" y="100" width="120" height="60" as="geometry"/>
                </mxCell>
                <mxCell id="AUYY_thtZLO__8hlKG5w-27" style="edgeStyle=none;html=1;exitX=1;exitY=0.5;exitDx=0;exitDy=0;entryX=0;entryY=0.5;entryDx=0;entryDy=0;strokeColor=#000000;fontSize=12;fontColor=#000000;startArrow=none;startFill=0;" parent="AUYY_thtZLO__8hlKG5w-1" source="AUYY_thtZLO__8hlKG5w-28" target="AUYY_thtZLO__8hlKG5w-11" edge="1">
                    <mxGeometry relative="1" as="geometry"/>
                </mxCell>
                <mxCell id="AUYY_thtZLO__8hlKG5w-28" value="9.Отправка данных в автомобиль" style="rounded=0;whiteSpace=wrap;html=1;strokeColor=#000000;" parent="AUYY_thtZLO__8hlKG5w-1" vertex="1">
                    <mxGeometry x="560" y="120" width="120" height="60" as="geometry"/>
                </mxCell>
                <mxCell id="AUYY_thtZLO__8hlKG5w-29" style="edgeStyle=none;html=1;exitX=0;exitY=0.5;exitDx=0;exitDy=0;entryX=1;entryY=0.5;entryDx=0;entryDy=0;strokeColor=#000000;fontSize=12;fontColor=#000000;startArrow=none;startFill=0;" parent="AUYY_thtZLO__8hlKG5w-1" source="AUYY_thtZLO__8hlKG5w-31" target="AUYY_thtZLO__8hlKG5w-23" edge="1">
                    <mxGeometry relative="1" as="geometry"/>
                </mxCell>
                <mxCell id="AUYY_thtZLO__8hlKG5w-30" style="edgeStyle=none;html=1;exitX=1;exitY=0.75;exitDx=0;exitDy=0;entryX=0;entryY=0.25;entryDx=0;entryDy=0;strokeColor=#000000;fontSize=12;fontColor=#000000;startArrow=none;startFill=0;" parent="AUYY_thtZLO__8hlKG5w-1" source="AUYY_thtZLO__8hlKG5w-31" target="AUYY_thtZLO__8hlKG5w-28" edge="1">
                    <mxGeometry relative="1" as="geometry">
                        <Array as="points">
                            <mxPoint x="540" y="65"/>
                            <mxPoint x="540" y="135"/>
                        </Array>
                    </mxGeometry>
                </mxCell>
                <mxCell id="AUYY_thtZLO__8hlKG5w-31" value="4.Контроль поездки" style="rounded=0;whiteSpace=wrap;html=1;strokeColor=#000000;" parent="AUYY_thtZLO__8hlKG5w-1" vertex="1">
                    <mxGeometry x="390" y="20" width="120" height="60" as="geometry"/>
                </mxCell>
            </root>
        </mxGraphModel>
    </diagram>
    <diagram id="tj6C-sOe8Rwprto7QXXV" name="Политика архитектуры">
        <mxGraphModel dx="1796" dy="828" grid="1" gridSize="10" guides="1" tooltips="1" connect="1" arrows="1" fold="1" page="1" pageScale="1" pageWidth="850" pageHeight="1100" background="#ffffff" math="0" shadow="0">
            <root>
                <mxCell id="0"/>
                <mxCell id="1" parent="0"/>
                <mxCell id="09bAgcRw7Mg5dkHs8b3K-1" style="edgeStyle=none;html=1;exitX=0.5;exitY=0;exitDx=0;exitDy=0;entryX=0.5;entryY=1;entryDx=0;entryDy=0;strokeColor=#990000;fontColor=#006600;startArrow=classic;startFill=1;" parent="1" source="09bAgcRw7Mg5dkHs8b3K-2" target="09bAgcRw7Mg5dkHs8b3K-15" edge="1">
                    <mxGeometry relative="1" as="geometry"/>
                </mxCell>
                <mxCell id="09bAgcRw7Mg5dkHs8b3K-2" value="Мобильное&lt;br&gt;приложение&lt;br&gt;клиента" style="rounded=0;whiteSpace=wrap;html=1;strokeColor=#990000;" parent="1" vertex="1">
                    <mxGeometry x="240" y="290" width="120" height="60" as="geometry"/>
                </mxCell>
                <mxCell id="09bAgcRw7Mg5dkHs8b3K-4" style="edgeStyle=none;html=1;entryX=0.5;entryY=1;entryDx=0;entryDy=0;startArrow=classic;startFill=1;strokeColor=#990000;" parent="1" source="09bAgcRw7Mg5dkHs8b3K-5" target="09bAgcRw7Mg5dkHs8b3K-2" edge="1">
                    <mxGeometry relative="1" as="geometry"/>
                </mxCell>
                <mxCell id="09bAgcRw7Mg5dkHs8b3K-5" value="Клиент" style="shape=umlActor;verticalLabelPosition=bottom;verticalAlign=top;html=1;outlineConnect=0;strokeColor=#990000;" parent="1" vertex="1">
                    <mxGeometry x="285" y="380" width="30" height="60" as="geometry"/>
                </mxCell>
                <mxCell id="09bAgcRw7Mg5dkHs8b3K-6" style="edgeStyle=none;html=1;exitX=0.5;exitY=1;exitDx=0;exitDy=0;entryX=0;entryY=0.5;entryDx=0;entryDy=0;startArrow=classic;startFill=1;strokeColor=#990000;" parent="1" source="09bAgcRw7Mg5dkHs8b3K-8" target="09bAgcRw7Mg5dkHs8b3K-2" edge="1">
                    <mxGeometry relative="1" as="geometry">
                        <Array as="points">
                            <mxPoint x="80" y="320"/>
                        </Array>
                    </mxGeometry>
                </mxCell>
                <mxCell id="09bAgcRw7Mg5dkHs8b3K-7" style="edgeStyle=none;html=1;entryX=0;entryY=0.5;entryDx=0;entryDy=0;strokeColor=#990000;fontColor=#006600;startArrow=classic;startFill=1;" parent="1" source="09bAgcRw7Mg5dkHs8b3K-8" target="09bAgcRw7Mg5dkHs8b3K-22" edge="1">
                    <mxGeometry relative="1" as="geometry">
                        <Array as="points">
                            <mxPoint x="80" y="40"/>
                        </Array>
                    </mxGeometry>
                </mxCell>
                <mxCell id="09bAgcRw7Mg5dkHs8b3K-8" value="Система&lt;br&gt;оплаты услуг" style="rounded=0;whiteSpace=wrap;html=1;strokeColor=#990000;" parent="1" vertex="1">
                    <mxGeometry x="20" y="110" width="120" height="60" as="geometry"/>
                </mxCell>
                <mxCell id="09bAgcRw7Mg5dkHs8b3K-9" style="edgeStyle=none;html=1;exitX=0.5;exitY=1;exitDx=0;exitDy=0;entryX=1;entryY=0.5;entryDx=0;entryDy=0;startArrow=classic;startFill=1;strokeColor=#990000;" parent="1" source="09bAgcRw7Mg5dkHs8b3K-11" target="09bAgcRw7Mg5dkHs8b3K-2" edge="1">
                    <mxGeometry relative="1" as="geometry">
                        <Array as="points">
                            <mxPoint x="790" y="310"/>
                            <mxPoint x="790" y="320"/>
                        </Array>
                    </mxGeometry>
                </mxCell>
                <mxCell id="JaVECgJefkHKKCBIunlH-7" style="edgeStyle=none;html=1;exitX=0.5;exitY=0;exitDx=0;exitDy=0;entryX=1;entryY=0.5;entryDx=0;entryDy=0;strokeColor=#990000;fontSize=12;fontColor=#000000;startArrow=none;startFill=0;" parent="1" source="09bAgcRw7Mg5dkHs8b3K-11" target="09bAgcRw7Mg5dkHs8b3K-24" edge="1">
                    <mxGeometry relative="1" as="geometry">
                        <Array as="points">
                            <mxPoint x="790" y="40"/>
                        </Array>
                    </mxGeometry>
                </mxCell>
                <mxCell id="09bAgcRw7Mg5dkHs8b3K-11" value="Автомобиль" style="rounded=0;whiteSpace=wrap;html=1;strokeColor=#990000;" parent="1" vertex="1">
                    <mxGeometry x="730" y="110" width="120" height="60" as="geometry"/>
                </mxCell>
                <mxCell id="09bAgcRw7Mg5dkHs8b3K-13" style="edgeStyle=none;html=1;exitX=0;exitY=0.5;exitDx=0;exitDy=0;entryX=0.5;entryY=1;entryDx=0;entryDy=0;strokeColor=#990000;fontColor=#006600;startArrow=classic;startFill=1;" parent="1" source="09bAgcRw7Mg5dkHs8b3K-29" target="09bAgcRw7Mg5dkHs8b3K-22" edge="1">
                    <mxGeometry relative="1" as="geometry">
                        <Array as="points">
                            <mxPoint x="160" y="130"/>
                        </Array>
                    </mxGeometry>
                </mxCell>
                <mxCell id="09bAgcRw7Mg5dkHs8b3K-14" style="edgeStyle=none;html=1;exitX=0.5;exitY=0;exitDx=0;exitDy=0;entryX=0.5;entryY=1;entryDx=0;entryDy=0;strokeColor=#990000;fontColor=#006600;startArrow=classic;startFill=1;" parent="1" source="09bAgcRw7Mg5dkHs8b3K-15" target="09bAgcRw7Mg5dkHs8b3K-29" edge="1">
                    <mxGeometry relative="1" as="geometry"/>
                </mxCell>
                <mxCell id="09bAgcRw7Mg5dkHs8b3K-15" value="&lt;font color=&quot;#000000&quot;&gt;1.Связь с мобильным клиентом&lt;/font&gt;" style="rounded=0;whiteSpace=wrap;html=1;strokeColor=#990000;fontColor=#990000;" parent="1" vertex="1">
                    <mxGeometry x="240" y="190" width="120" height="60" as="geometry"/>
                </mxCell>
                <mxCell id="JaVECgJefkHKKCBIunlH-8" style="edgeStyle=none;html=1;exitX=1;exitY=0.5;exitDx=0;exitDy=0;entryX=0;entryY=0.5;entryDx=0;entryDy=0;strokeColor=#006600;fontSize=12;fontColor=#000000;startArrow=none;startFill=0;" parent="1" source="09bAgcRw7Mg5dkHs8b3K-17" target="ZI4N0iTVbNDPJOVEHMT9-4" edge="1">
                    <mxGeometry relative="1" as="geometry">
                        <Array as="points">
                            <mxPoint x="560" y="200"/>
                            <mxPoint x="560" y="140"/>
                        </Array>
                    </mxGeometry>
                </mxCell>
                <mxCell id="09bAgcRw7Mg5dkHs8b3K-17" value="7.Авторизация клиента" style="rounded=0;whiteSpace=wrap;html=1;strokeColor=#006600;" parent="1" vertex="1">
                    <mxGeometry x="410" y="170" width="120" height="60" as="geometry"/>
                </mxCell>
                <mxCell id="09bAgcRw7Mg5dkHs8b3K-18" style="edgeStyle=none;html=1;exitX=0.5;exitY=1;exitDx=0;exitDy=0;startArrow=classic;startFill=1;strokeColor=#006600;" parent="1" source="09bAgcRw7Mg5dkHs8b3K-19" target="09bAgcRw7Mg5dkHs8b3K-20" edge="1">
                    <mxGeometry relative="1" as="geometry"/>
                </mxCell>
                <mxCell id="09bAgcRw7Mg5dkHs8b3K-19" value="&lt;font&gt;Брокер сообщений&lt;/font&gt;" style="rounded=0;whiteSpace=wrap;html=1;fillColor=#FFFFFF;strokeColor=#006600;fontColor=#006600;" parent="1" vertex="1">
                    <mxGeometry x="690" y="200" width="80" height="40" as="geometry"/>
                </mxCell>
                <mxCell id="09bAgcRw7Mg5dkHs8b3K-20" value="&lt;font color=&quot;#006600&quot;&gt;Монитор безопасности&lt;/font&gt;" style="rounded=0;whiteSpace=wrap;html=1;strokeColor=#006600;" parent="1" vertex="1">
                    <mxGeometry x="690" y="260" width="80" height="40" as="geometry"/>
                </mxCell>
                <mxCell id="09bAgcRw7Mg5dkHs8b3K-21" value="Вся внутренняя коммуникация происходит в этих сущностях" style="text;html=1;strokeColor=none;fillColor=none;align=center;verticalAlign=middle;whiteSpace=wrap;rounded=0;" parent="1" vertex="1">
                    <mxGeometry x="570" y="220" width="110" height="60" as="geometry"/>
                </mxCell>
                <mxCell id="09bAgcRw7Mg5dkHs8b3K-22" value="&lt;font color=&quot;#000000&quot;&gt;5.Работа с системой оплаты услуг и счетами&lt;/font&gt;" style="rounded=0;whiteSpace=wrap;html=1;strokeColor=#990000;fontColor=#990000;" parent="1" vertex="1">
                    <mxGeometry x="100" y="10" width="120" height="60" as="geometry"/>
                </mxCell>
                <mxCell id="JaVECgJefkHKKCBIunlH-3" style="edgeStyle=none;html=1;exitX=0;exitY=0.5;exitDx=0;exitDy=0;entryX=1;entryY=0.5;entryDx=0;entryDy=0;strokeColor=#990000;fontSize=12;fontColor=#000000;startArrow=none;startFill=0;" parent="1" source="09bAgcRw7Mg5dkHs8b3K-24" target="ZI4N0iTVbNDPJOVEHMT9-6" edge="1">
                    <mxGeometry relative="1" as="geometry"/>
                </mxCell>
                <mxCell id="09bAgcRw7Mg5dkHs8b3K-24" value="8.Приём данных от автомобиля" style="rounded=0;whiteSpace=wrap;html=1;strokeColor=#990000;" parent="1" vertex="1">
                    <mxGeometry x="580" y="10" width="120" height="60" as="geometry"/>
                </mxCell>
                <mxCell id="ZI4N0iTVbNDPJOVEHMT9-2" style="edgeStyle=none;html=1;strokeColor=#990000;fontColor=#990000;startArrow=classic;startFill=1;" parent="1" source="09bAgcRw7Mg5dkHs8b3K-27" target="09bAgcRw7Mg5dkHs8b3K-29" edge="1">
                    <mxGeometry relative="1" as="geometry"/>
                </mxCell>
                <mxCell id="JaVECgJefkHKKCBIunlH-5" style="edgeStyle=none;html=1;exitX=1;exitY=0.75;exitDx=0;exitDy=0;entryX=0;entryY=0.5;entryDx=0;entryDy=0;strokeColor=#990000;fontSize=12;fontColor=#000000;startArrow=none;startFill=0;" parent="1" source="09bAgcRw7Mg5dkHs8b3K-27" target="ZI4N0iTVbNDPJOVEHMT9-3" edge="1">
                    <mxGeometry relative="1" as="geometry">
                        <Array as="points">
                            <mxPoint x="390" y="55"/>
                            <mxPoint x="390" y="120"/>
                        </Array>
                    </mxGeometry>
                </mxCell>
                <mxCell id="09bAgcRw7Mg5dkHs8b3K-27" value="3.Управление поездкой" style="rounded=0;whiteSpace=wrap;html=1;strokeColor=#990000;" parent="1" vertex="1">
                    <mxGeometry x="240" y="10" width="120" height="60" as="geometry"/>
                </mxCell>
                <mxCell id="09bAgcRw7Mg5dkHs8b3K-29" value="&lt;font color=&quot;#000000&quot;&gt;2.Профиль клиента&lt;/font&gt;" style="rounded=0;whiteSpace=wrap;html=1;strokeColor=#990000;fontColor=#990000;" parent="1" vertex="1">
                    <mxGeometry x="240" y="100" width="120" height="60" as="geometry"/>
                </mxCell>
                <mxCell id="JaVECgJefkHKKCBIunlH-9" style="edgeStyle=none;html=1;exitX=0.5;exitY=1;exitDx=0;exitDy=0;entryX=0.5;entryY=0;entryDx=0;entryDy=0;strokeColor=#006600;fontSize=12;fontColor=#000000;startArrow=none;startFill=0;" parent="1" source="ZI4N0iTVbNDPJOVEHMT9-3" target="09bAgcRw7Mg5dkHs8b3K-17" edge="1">
                    <mxGeometry relative="1" as="geometry"/>
                </mxCell>
                <mxCell id="ZI4N0iTVbNDPJOVEHMT9-3" value="6.Верификация команд и услуг" style="rounded=0;whiteSpace=wrap;html=1;strokeColor=#FF8000;" parent="1" vertex="1">
                    <mxGeometry x="410" y="90" width="120" height="60" as="geometry"/>
                </mxCell>
                <mxCell id="JaVECgJefkHKKCBIunlH-11" style="edgeStyle=none;html=1;exitX=1;exitY=0.5;exitDx=0;exitDy=0;entryX=0;entryY=0.5;entryDx=0;entryDy=0;strokeColor=#006600;fontSize=12;fontColor=#000000;startArrow=none;startFill=0;" parent="1" source="ZI4N0iTVbNDPJOVEHMT9-4" target="09bAgcRw7Mg5dkHs8b3K-11" edge="1">
                    <mxGeometry relative="1" as="geometry"/>
                </mxCell>
                <mxCell id="ZI4N0iTVbNDPJOVEHMT9-4" value="9.Отправка данных в автомобиль" style="rounded=0;whiteSpace=wrap;html=1;strokeColor=#006600;" parent="1" vertex="1">
                    <mxGeometry x="580" y="110" width="120" height="60" as="geometry"/>
                </mxCell>
                <mxCell id="JaVECgJefkHKKCBIunlH-1" style="edgeStyle=none;html=1;exitX=0;exitY=0.5;exitDx=0;exitDy=0;entryX=1;entryY=0.5;entryDx=0;entryDy=0;strokeColor=#006600;fontSize=12;fontColor=#000000;startArrow=none;startFill=0;" parent="1" source="ZI4N0iTVbNDPJOVEHMT9-6" target="09bAgcRw7Mg5dkHs8b3K-27" edge="1">
                    <mxGeometry relative="1" as="geometry"/>
                </mxCell>
                <mxCell id="JaVECgJefkHKKCBIunlH-4" style="edgeStyle=none;html=1;exitX=1;exitY=0.75;exitDx=0;exitDy=0;entryX=0;entryY=0.25;entryDx=0;entryDy=0;strokeColor=#006600;fontSize=12;fontColor=#000000;startArrow=none;startFill=0;" parent="1" source="ZI4N0iTVbNDPJOVEHMT9-6" target="ZI4N0iTVbNDPJOVEHMT9-4" edge="1">
                    <mxGeometry relative="1" as="geometry">
                        <Array as="points">
                            <mxPoint x="560" y="55"/>
                            <mxPoint x="560" y="125"/>
                        </Array>
                    </mxGeometry>
                </mxCell>
                <mxCell id="ZI4N0iTVbNDPJOVEHMT9-6" value="4.Контроль поездки" style="rounded=0;whiteSpace=wrap;html=1;strokeColor=#FF8000;" parent="1" vertex="1">
                    <mxGeometry x="410" y="10" width="120" height="60" as="geometry"/>
                </mxCell>
                <mxCell id="mZhuJKZjA31MPAxudFGb-1" value="" style="group" parent="1" connectable="0" vertex="1">
                    <mxGeometry x="390" y="340" width="220" height="293" as="geometry"/>
                </mxCell>
                <mxCell id="mZhuJKZjA31MPAxudFGb-2" value="&lt;h1&gt;Легенда&lt;/h1&gt;&lt;p&gt;недоверенная сущность&lt;/p&gt;&lt;p&gt;&lt;br&gt;&lt;/p&gt;&lt;p&gt;доверенная сущность&lt;/p&gt;&lt;p&gt;&lt;br&gt;&lt;/p&gt;&lt;p&gt;доверенная сущность, повышающая целостность данных&lt;br&gt;&lt;br&gt;&lt;/p&gt;&lt;p&gt;высокоцелостные данные&lt;/p&gt;&lt;p&gt;&lt;br&gt;&lt;/p&gt;&lt;p&gt;низкоцелостные данные&lt;/p&gt;" style="text;html=1;strokeColor=none;fillColor=none;spacing=5;spacingTop=-20;whiteSpace=wrap;overflow=hidden;rounded=0;" parent="mZhuJKZjA31MPAxudFGb-1" vertex="1">
                    <mxGeometry x="44" width="176" height="293" as="geometry"/>
                </mxCell>
                <mxCell id="mZhuJKZjA31MPAxudFGb-3" value="" style="rounded=1;whiteSpace=wrap;html=1;strokeColor=#FF0000;fillColor=#FFFFFF;" parent="mZhuJKZjA31MPAxudFGb-1" vertex="1">
                    <mxGeometry y="50" width="35.2" height="20" as="geometry"/>
                </mxCell>
                <mxCell id="mZhuJKZjA31MPAxudFGb-4" value="" style="rounded=1;whiteSpace=wrap;html=1;strokeColor=#009900;" parent="mZhuJKZjA31MPAxudFGb-1" vertex="1">
                    <mxGeometry y="98" width="35.2" height="20" as="geometry"/>
                </mxCell>
                <mxCell id="mZhuJKZjA31MPAxudFGb-5" value="" style="rounded=1;whiteSpace=wrap;html=1;strokeColor=#FF8000;" parent="mZhuJKZjA31MPAxudFGb-1" vertex="1">
                    <mxGeometry y="160" width="35.2" height="20" as="geometry"/>
                </mxCell>
                <mxCell id="mZhuJKZjA31MPAxudFGb-6" value="" style="endArrow=classic;html=1;rounded=0;strokeColor=#009900;" parent="mZhuJKZjA31MPAxudFGb-1" edge="1">
                    <mxGeometry width="50" height="50" relative="1" as="geometry">
                        <mxPoint x="2.64" y="234" as="sourcePoint"/>
                        <mxPoint x="37.84" y="234" as="targetPoint"/>
                    </mxGeometry>
                </mxCell>
                <mxCell id="mZhuJKZjA31MPAxudFGb-7" value="" style="endArrow=classic;html=1;rounded=0;strokeColor=#FF0000;" parent="mZhuJKZjA31MPAxudFGb-1" edge="1">
                    <mxGeometry width="50" height="50" relative="1" as="geometry">
                        <mxPoint x="4.4" y="283" as="sourcePoint"/>
                        <mxPoint x="38.72" y="283" as="targetPoint"/>
                    </mxGeometry>
                </mxCell>
                <mxCell id="mZhuJKZjA31MPAxudFGb-8" value="" style="group" parent="1" connectable="0" vertex="1">
                    <mxGeometry x="600" y="340" width="240" height="160" as="geometry"/>
                </mxCell>
                <mxCell id="mZhuJKZjA31MPAxudFGb-9" value="&lt;h1&gt;&lt;font style=&quot;font-size: 14px;&quot;&gt;Качественные оценки доменов&amp;nbsp;&lt;/font&gt;&lt;/h1&gt;&lt;p&gt;Сложность - S (simple), M(medium), C (complex) - простой, средней сложности, сложный&lt;/p&gt;&lt;p&gt;Размер (объём) кода - S, M, L, XL - маленький, среднего размера, большой, очень большой&lt;/p&gt;&lt;p&gt;&lt;span style=&quot;background-color: initial;&quot;&gt;&amp;nbsp; &amp;nbsp;&amp;nbsp; &amp;nbsp; &amp;nbsp;- простой и маленький&lt;/span&gt;&lt;br&gt;&lt;/p&gt;" style="text;html=1;strokeColor=none;fillColor=none;spacing=5;spacingTop=-20;whiteSpace=wrap;overflow=hidden;rounded=0;fontSize=10;" parent="mZhuJKZjA31MPAxudFGb-8" vertex="1">
                    <mxGeometry width="240" height="160" as="geometry"/>
                </mxCell>
                <mxCell id="mZhuJKZjA31MPAxudFGb-10" value="SS" style="ellipse;whiteSpace=wrap;html=1;aspect=fixed;strokeColor=#000000;fontSize=10;fillColor=#FFFFFF;" parent="mZhuJKZjA31MPAxudFGb-8" vertex="1">
                    <mxGeometry x="2.769230769230769" y="105" width="18.461538461538463" height="18.461538461538463" as="geometry"/>
                </mxCell>
                <mxCell id="uI7zFAnZv4XLoWnoc_Tm-1" value="SS" style="ellipse;whiteSpace=wrap;html=1;aspect=fixed;strokeColor=#006600;fontSize=10;fillColor=#FFFFFF;" parent="1" vertex="1">
                    <mxGeometry x="511.5392307692307" y="210.77" width="18.461538461538463" height="18.461538461538463" as="geometry"/>
                </mxCell>
                <mxCell id="uI7zFAnZv4XLoWnoc_Tm-2" value="SS" style="ellipse;whiteSpace=wrap;html=1;aspect=fixed;strokeColor=#006600;fontSize=10;fillColor=#FFFFFF;" parent="1" vertex="1">
                    <mxGeometry x="681.5392307692307" y="151.54" width="18.461538461538463" height="18.461538461538463" as="geometry"/>
                </mxCell>
                <mxCell id="uI7zFAnZv4XLoWnoc_Tm-3" value="SM" style="ellipse;whiteSpace=wrap;html=1;aspect=fixed;strokeColor=#FF8000;fontSize=10;fillColor=#FFFFFF;" parent="1" vertex="1">
                    <mxGeometry x="511.5392307692307" y="131.54" width="18.461538461538463" height="18.461538461538463" as="geometry"/>
                </mxCell>
                <mxCell id="uI7zFAnZv4XLoWnoc_Tm-4" value="SL" style="ellipse;whiteSpace=wrap;html=1;aspect=fixed;strokeColor=#FF8000;fontSize=10;fillColor=#FFFFFF;" parent="1" vertex="1">
                    <mxGeometry x="511.5392307692307" y="51.53999999999999" width="18.461538461538463" height="18.461538461538463" as="geometry"/>
                </mxCell>
                <mxCell id="uI7zFAnZv4XLoWnoc_Tm-5" value="MM" style="ellipse;whiteSpace=wrap;html=1;aspect=fixed;strokeColor=#990000;fontSize=10;fillColor=#FFFFFF;" parent="1" vertex="1">
                    <mxGeometry x="681.5392307692307" y="51.540000000000006" width="18.461538461538463" height="18.461538461538463" as="geometry"/>
                </mxCell>
                <mxCell id="uI7zFAnZv4XLoWnoc_Tm-6" value="CL" style="ellipse;whiteSpace=wrap;html=1;aspect=fixed;strokeColor=#990000;fontSize=10;fillColor=#FFFFFF;" parent="1" vertex="1">
                    <mxGeometry x="341.5392307692307" y="51.540000000000006" width="18.461538461538463" height="18.461538461538463" as="geometry"/>
                </mxCell>
                <mxCell id="uI7zFAnZv4XLoWnoc_Tm-7" value="CL" style="ellipse;whiteSpace=wrap;html=1;aspect=fixed;strokeColor=#990000;fontSize=10;fillColor=#FFFFFF;" parent="1" vertex="1">
                    <mxGeometry x="341.5392307692307" y="141.54000000000002" width="18.461538461538463" height="18.461538461538463" as="geometry"/>
                </mxCell>
                <mxCell id="uI7zFAnZv4XLoWnoc_Tm-8" value="ML" style="ellipse;whiteSpace=wrap;html=1;aspect=fixed;strokeColor=#990000;fontSize=10;fillColor=#FFFFFF;" parent="1" vertex="1">
                    <mxGeometry x="341.5392307692307" y="231.54" width="18.461538461538463" height="18.461538461538463" as="geometry"/>
                </mxCell>
                <mxCell id="uI7zFAnZv4XLoWnoc_Tm-9" value="CL" style="ellipse;whiteSpace=wrap;html=1;aspect=fixed;strokeColor=#990000;fontSize=10;fillColor=#FFFFFF;" parent="1" vertex="1">
                    <mxGeometry x="201.5392307692307" y="51.53999999999999" width="18.461538461538463" height="18.461538461538463" as="geometry"/>
                </mxCell>
            </root>
        </mxGraphModel>
    </diagram>
</mxfile>